# xmcd CD database file
#
# Track frame offsets:
#	150
#	22950
#	41227
#
# Disc length: 894 seconds
#
# Revision: 0
# Processed by: cddbd v1.5.1PL0 Copyright (c) Steve Scherf et al.
# Submitted via: CDex 1.51
#
DISCID=1d037c03
DTITLE=Knew klid romance - 月と君と僕の関係
DYEAR=1999
DGENRE=ロック (日本)
TTITLE0=月と君と僕の関係
TTITLE1=天使のしっぽ
TTITLE2=しあわせにできる権利(live)
EXTD=YEAR: 1999
EXTT0=
EXTT1=
EXTT2=
PLAYORDER=
